<?xml version="1.0" encoding="utf-8"?><svg version="1.1" id="Layer_1" xmlns="http://www.w3.org/2000/svg" xmlns:xlink="http://www.w3.org/1999/xlink" x="0px" y="0px" viewBox="0 0 122.88 114.71" style="enable-background:new 0 0 122.88 114.71" xml:space="preserve"><style type="text/css">.st0{fill-rule:evenodd;clip-rule:evenodd;}</style><g><path class="st0" d="M2.09,0h118.71c1.15,0,2.09,0.89,2.09,1.98v110.74c0,1.09-0.93,1.98-2.09,1.98H2.09 c-1.15,0-2.09-0.89-2.09-1.98V1.98C0,0.89,0.93,0,2.09,0L2.09,0z M54.94,39.53L70.52,50.4c0.26,0.16,0.49,0.38,0.67,0.64 c0.73,1.06,0.46,2.5-0.59,3.23L55.09,65c-0.4,0.33-0.91,0.52-1.47,0.52c-1.29,0-2.33-1.04-2.33-2.33V41.44h0.01 c0-0.46,0.14-0.92,0.42-1.33C52.44,39.05,53.89,38.8,54.94,39.53L54.94,39.53z M28.02,83.15h50.93c0.49,0,0.89,0.4,0.89,0.89v3.32 c0,0.49-0.4,0.89-0.89,0.89H28.02c-0.49,0-0.89-0.4-0.89-0.89v-3.32C27.13,83.55,27.53,83.15,28.02,83.15L28.02,83.15z M17.02,83.15h4.23c0.49,0,0.89,0.4,0.89,0.89v3.32c0,0.49-0.4,0.89-0.89,0.89h-4.23c-0.49,0-0.89-0.4-0.89-0.89v-3.32 C16.13,83.55,16.53,83.15,17.02,83.15L17.02,83.15z M17.36,98.54H85.3c0.68,0,1.23,0.84,1.23,1.86v0.67c0,1.02-0.56,1.86-1.23,1.86 H17.36c-0.68,0-1.23-0.84-1.23-1.86v-0.67C16.13,99.37,16.68,98.54,17.36,98.54L17.36,98.54z M16.13,29.92h90.62 c1.1,0,2,0.82,2,1.84v41.12c0,1.01-0.89,1.84-2,1.84H16.13c-1.1,0-2-0.82-2-1.84V31.76C14.13,30.74,15.03,29.92,16.13,29.92 L16.13,29.92z M104.75,33.59H18.13v37.44h86.63V33.59L104.75,33.59z M95.8,6.71c2.19,0,3.97,1.78,3.97,3.97s-1.78,3.97-3.97,3.97 c-2.19,0-3.97-1.78-3.97-3.97S93.6,6.71,95.8,6.71L95.8,6.71z M81.88,6.71c2.19,0,3.97,1.78,3.97,3.97s-1.78,3.97-3.97,3.97 c-2.19,0-3.97-1.78-3.97-3.97S79.68,6.71,81.88,6.71L81.88,6.71z M109.71,6.71c2.19,0,3.97,1.78,3.97,3.97s-1.78,3.97-3.97,3.97 s-3.97-1.78-3.97-3.97S107.52,6.71,109.71,6.71L109.71,6.71z M118.71,21.37H4.17v89.37h114.54V21.37L118.71,21.37z"/></g></svg>